<svg width="24" height="24" viewBox="0 0 24 24" fill="none" xmlns="http://www.w3.org/2000/svg">
    <rect x="-2.625" y="0.0366211" width="36.75" height="24" rx="2" fill="white"/>
    <mask id="mask0_153_308" style="mask-type:luminance" maskUnits="userSpaceOnUse" x="-3" y="0" width="38" height="25">
        <rect x="-2.625" y="0.0366211" width="36.75" height="24" rx="2" fill="white"/>
    </mask>
    <g mask="url(#mask0_153_308)">
        <path fill-rule="evenodd" clip-rule="evenodd" d="M34.125 0.0366211H-2.625V1.63662H34.125V0.0366211ZM34.125 3.23663H-2.625V4.83663H34.125V3.23663ZM-2.625 6.4366H34.125V8.0366H-2.625V6.4366ZM34.125 9.6366H-2.625V11.2366H34.125V9.6366ZM-2.625 12.8366H34.125V14.4366H-2.625V12.8366ZM34.125 16.0366H-2.625V17.6366H34.125V16.0366ZM-2.625 19.2367H34.125V20.8366H-2.625V19.2367ZM34.125 22.4366H-2.625V24.0366H34.125V22.4366Z" fill="#D02F44"/>
        <rect x="-2.625" y="0.0366211" width="15.75" height="11.2" fill="#46467F"/>
        <g filter="url(#filter0_d_153_308)">
            <path fill-rule="evenodd" clip-rule="evenodd" d="M0.875 2.43672C0.875 2.87855 0.483249 3.23672 0 3.23672C-0.483249 3.23672 -0.875 2.87855 -0.875 2.43672C-0.875 1.99489 -0.483249 1.63672 0 1.63672C0.483249 1.63672 0.875 1.99489 0.875 2.43672ZM4.37501 2.43672C4.37501 2.87855 3.98326 3.23672 3.50001 3.23672C3.01676 3.23672 2.62501 2.87855 2.62501 2.43672C2.62501 1.99489 3.01676 1.63672 3.50001 1.63672C3.98326 1.63672 4.37501 1.99489 4.37501 2.43672ZM6.99986 3.23672C7.4831 3.23672 7.87486 2.87855 7.87486 2.43672C7.87486 1.99489 7.4831 1.63672 6.99986 1.63672C6.51661 1.63672 6.12486 1.99489 6.12486 2.43672C6.12486 2.87855 6.51661 3.23672 6.99986 3.23672ZM11.375 2.43672C11.375 2.87855 10.9832 3.23672 10.5 3.23672C10.0167 3.23672 9.62497 2.87855 9.62497 2.43672C9.62497 1.99489 10.0167 1.63672 10.5 1.63672C10.9832 1.63672 11.375 1.99489 11.375 2.43672ZM1.75001 4.83674C2.23326 4.83674 2.62501 4.47856 2.62501 4.03674C2.62501 3.59491 2.23326 3.23674 1.75001 3.23674C1.26676 3.23674 0.875013 3.59491 0.875013 4.03674C0.875013 4.47856 1.26676 4.83674 1.75001 4.83674ZM6.12501 4.03674C6.12501 4.47856 5.73326 4.83674 5.25001 4.83674C4.76677 4.83674 4.37501 4.47856 4.37501 4.03674C4.37501 3.59491 4.76677 3.23674 5.25001 3.23674C5.73326 3.23674 6.12501 3.59491 6.12501 4.03674ZM8.75 4.83674C9.23325 4.83674 9.625 4.47856 9.625 4.03674C9.625 3.59491 9.23325 3.23674 8.75 3.23674C8.26675 3.23674 7.875 3.59491 7.875 4.03674C7.875 4.47856 8.26675 4.83674 8.75 4.83674ZM11.375 5.63673C11.375 6.07856 10.9832 6.43673 10.5 6.43673C10.0167 6.43673 9.62497 6.07856 9.62497 5.63673C9.62497 5.1949 10.0167 4.83673 10.5 4.83673C10.9832 4.83673 11.375 5.1949 11.375 5.63673ZM6.99986 6.43673C7.4831 6.43673 7.87486 6.07856 7.87486 5.63673C7.87486 5.1949 7.4831 4.83673 6.99986 4.83673C6.51661 4.83673 6.12486 5.1949 6.12486 5.63673C6.12486 6.07856 6.51661 6.43673 6.99986 6.43673ZM4.37501 5.63673C4.37501 6.07856 3.98326 6.43673 3.50001 6.43673C3.01676 6.43673 2.62501 6.07856 2.62501 5.63673C2.62501 5.1949 3.01676 4.83673 3.50001 4.83673C3.98326 4.83673 4.37501 5.1949 4.37501 5.63673ZM0 6.43673C0.483249 6.43673 0.875 6.07856 0.875 5.63673C0.875 5.1949 0.483249 4.83673 0 4.83673C-0.483249 4.83673 -0.875 5.1949 -0.875 5.63673C-0.875 6.07856 -0.483249 6.43673 0 6.43673ZM2.62501 7.23669C2.62501 7.67852 2.23326 8.03669 1.75001 8.03669C1.26676 8.03669 0.875013 7.67852 0.875013 7.23669C0.875013 6.79487 1.26676 6.43669 1.75001 6.43669C2.23326 6.43669 2.62501 6.79487 2.62501 7.23669ZM5.25001 8.03669C5.73326 8.03669 6.12501 7.67852 6.12501 7.23669C6.12501 6.79487 5.73326 6.43669 5.25001 6.43669C4.76677 6.43669 4.37501 6.79487 4.37501 7.23669C4.37501 7.67852 4.76677 8.03669 5.25001 8.03669ZM9.625 7.23669C9.625 7.67852 9.23325 8.03669 8.75 8.03669C8.26675 8.03669 7.875 7.67852 7.875 7.23669C7.875 6.79487 8.26675 6.43669 8.75 6.43669C9.23325 6.43669 9.625 6.79487 9.625 7.23669ZM10.5 9.63669C10.9832 9.63669 11.375 9.27852 11.375 8.83669C11.375 8.39487 10.9832 8.03669 10.5 8.03669C10.0167 8.03669 9.62497 8.39487 9.62497 8.83669C9.62497 9.27852 10.0167 9.63669 10.5 9.63669ZM7.87486 8.83669C7.87486 9.27852 7.4831 9.63669 6.99986 9.63669C6.51661 9.63669 6.12486 9.27852 6.12486 8.83669C6.12486 8.39487 6.51661 8.03669 6.99986 8.03669C7.4831 8.03669 7.87486 8.39487 7.87486 8.83669ZM3.50001 9.63669C3.98326 9.63669 4.37501 9.27852 4.37501 8.83669C4.37501 8.39487 3.98326 8.03669 3.50001 8.03669C3.01676 8.03669 2.62501 8.39487 2.62501 8.83669C2.62501 9.27852 3.01676 9.63669 3.50001 9.63669ZM0.875 8.83669C0.875 9.27852 0.483249 9.63669 0 9.63669C-0.483249 9.63669 -0.875 9.27852 -0.875 8.83669C-0.875 8.39487 -0.483249 8.03669 0 8.03669C0.483249 8.03669 0.875 8.39487 0.875 8.83669Z" fill="url(#paint0_linear_153_308)"/>
        </g>
    </g>
    <defs>
        <filter id="filter0_d_153_308" x="-0.875" y="1.63672" width="12.25" height="9" filterUnits="userSpaceOnUse" color-interpolation-filters="sRGB">
            <feFlood flood-opacity="0" result="BackgroundImageFix"/>
            <feColorMatrix in="SourceAlpha" type="matrix" values="0 0 0 0 0 0 0 0 0 0 0 0 0 0 0 0 0 0 127 0" result="hardAlpha"/>
            <feOffset dy="1"/>
            <feColorMatrix type="matrix" values="0 0 0 0 0 0 0 0 0 0 0 0 0 0 0 0 0 0 0.06 0"/>
            <feBlend mode="normal" in2="BackgroundImageFix" result="effect1_dropShadow_153_308"/>
            <feBlend mode="normal" in="SourceGraphic" in2="effect1_dropShadow_153_308" result="shape"/>
        </filter>
        <linearGradient id="paint0_linear_153_308" x1="-0.875" y1="1.63672" x2="-0.875" y2="9.63672" gradientUnits="userSpaceOnUse">
            <stop stop-color="white"/>
            <stop offset="1" stop-color="#F0F0F0"/>
        </linearGradient>
    </defs>
</svg>
